<mxfile host="app.diagrams.net" modified="2024-05-18T03:20:20.980Z" agent="Mozilla/5.0 (Macintosh; Intel Mac OS X 10_15_7) AppleWebKit/537.36 (KHTML, like Gecko) Chrome/124.0.0.0 Safari/537.36" etag="FKgCZVOVj27aRwfRdd4W" version="24.4.4" type="github">
  <diagram name="Page-1" id="5vq4HKyh1jyDOqxMfQYT">
    <mxGraphModel dx="1036" dy="595" grid="1" gridSize="10" guides="1" tooltips="1" connect="1" arrows="1" fold="1" page="1" pageScale="1" pageWidth="850" pageHeight="1100" math="0" shadow="0">
      <root>
        <mxCell id="0" />
        <mxCell id="1" parent="0" />
        <mxCell id="7LfN_9OkxTcba98f9i6o-1" value="m&lt;sub style=&quot;font-size: 15px;&quot;&gt;i+2&lt;/sub&gt;" style="rounded=0;whiteSpace=wrap;html=1;fontFamily=Courier New;fontSize=15;strokeWidth=1;strokeColor=default;fontStyle=0;fillColor=none;" parent="1" vertex="1">
          <mxGeometry x="205" y="900" width="80" height="40" as="geometry" />
        </mxCell>
        <mxCell id="7LfN_9OkxTcba98f9i6o-8" value="t&lt;sub style=&quot;font-size: 15px;&quot;&gt;i+2&lt;/sub&gt;" style="rounded=0;whiteSpace=wrap;html=1;fontFamily=Courier New;fontSize=15;fillColor=#f8cecc;strokeWidth=1;strokeColor=#b85450;fontStyle=0" parent="1" vertex="1">
          <mxGeometry x="285" y="900" width="40" height="40" as="geometry" />
        </mxCell>
        <mxCell id="7LfN_9OkxTcba98f9i6o-9" value="m&lt;sub style=&quot;font-size: 15px;&quot;&gt;i+3&lt;/sub&gt;" style="rounded=0;whiteSpace=wrap;html=1;fontFamily=Courier New;fontSize=15;strokeWidth=1;strokeColor=default;fontStyle=0;fillColor=none;" parent="1" vertex="1">
          <mxGeometry x="365" y="900" width="80" height="40" as="geometry" />
        </mxCell>
        <mxCell id="7LfN_9OkxTcba98f9i6o-10" value="t&lt;sub style=&quot;font-size: 15px;&quot;&gt;i+3&lt;/sub&gt;" style="rounded=0;whiteSpace=wrap;html=1;fontFamily=Courier New;fontSize=15;fillColor=#f8cecc;strokeColor=#b85450;" parent="1" vertex="1">
          <mxGeometry x="445" y="900" width="40" height="40" as="geometry" />
        </mxCell>
        <mxCell id="7LfN_9OkxTcba98f9i6o-11" value="m&lt;sub style=&quot;font-size: 15px;&quot;&gt;i+4&lt;/sub&gt;" style="rounded=0;whiteSpace=wrap;html=1;fontFamily=Courier New;fontSize=15;" parent="1" vertex="1">
          <mxGeometry x="525" y="900" width="80" height="40" as="geometry" />
        </mxCell>
        <mxCell id="7LfN_9OkxTcba98f9i6o-13" value="m&lt;sub style=&quot;font-size: 15px;&quot;&gt;i+5&lt;/sub&gt;" style="rounded=0;whiteSpace=wrap;html=1;fontFamily=Courier New;fontSize=15;" parent="1" vertex="1">
          <mxGeometry x="700" y="900" width="80" height="40" as="geometry" />
        </mxCell>
        <mxCell id="7LfN_9OkxTcba98f9i6o-15" value="m&lt;sub style=&quot;font-size: 15px;&quot;&gt;i+1&lt;/sub&gt;" style="rounded=0;whiteSpace=wrap;html=1;fontFamily=Courier New;fontSize=15;strokeWidth=1;strokeColor=default;fontStyle=0;fillColor=none;" parent="1" vertex="1">
          <mxGeometry x="45" y="900" width="80" height="40" as="geometry" />
        </mxCell>
        <mxCell id="7LfN_9OkxTcba98f9i6o-16" value="&lt;span style=&quot;color: rgb(0, 0, 0); font-size: 15px; font-style: normal; font-variant-ligatures: normal; font-variant-caps: normal; letter-spacing: normal; orphans: 2; text-align: center; text-indent: 0px; text-transform: none; widows: 2; word-spacing: 0px; -webkit-text-stroke-width: 0px; white-space: normal; text-decoration-thickness: initial; text-decoration-style: initial; text-decoration-color: initial; float: none; display: inline !important;&quot;&gt;t&lt;/span&gt;&lt;sub style=&quot;forced-color-adjust: none; color: rgb(0, 0, 0); font-style: normal; font-variant-ligatures: normal; font-variant-caps: normal; letter-spacing: normal; orphans: 2; text-align: center; text-indent: 0px; text-transform: none; widows: 2; word-spacing: 0px; -webkit-text-stroke-width: 0px; white-space: normal; text-decoration-thickness: initial; text-decoration-style: initial; text-decoration-color: initial; font-size: 15px;&quot;&gt;i+1&lt;/sub&gt;" style="rounded=0;whiteSpace=wrap;html=1;fontFamily=Courier New;fontSize=15;labelBackgroundColor=none;fillColor=#f8cecc;strokeWidth=1;strokeColor=#b85450;fontStyle=0" parent="1" vertex="1">
          <mxGeometry x="125" y="900" width="40" height="40" as="geometry" />
        </mxCell>
        <mxCell id="R5h9vcgwqC-V3kslJ7xL-3" style="edgeStyle=orthogonalEdgeStyle;rounded=0;orthogonalLoop=1;jettySize=auto;html=1;exitX=0.5;exitY=1;exitDx=0;exitDy=0;entryX=0;entryY=0.5;entryDx=0;entryDy=0;" edge="1" parent="1" source="7LfN_9OkxTcba98f9i6o-64" target="7LfN_9OkxTcba98f9i6o-190">
          <mxGeometry relative="1" as="geometry" />
        </mxCell>
        <mxCell id="7LfN_9OkxTcba98f9i6o-64" value="m&lt;sub style=&quot;font-size: 15px;&quot;&gt;i+2&lt;/sub&gt;" style="rounded=0;whiteSpace=wrap;html=1;fontFamily=Courier New;fontSize=15;strokeWidth=1;strokeColor=default;fontStyle=0;fillColor=none;" parent="1" vertex="1">
          <mxGeometry x="90" y="250" width="80" height="40" as="geometry" />
        </mxCell>
        <mxCell id="R5h9vcgwqC-V3kslJ7xL-4" style="edgeStyle=orthogonalEdgeStyle;rounded=0;orthogonalLoop=1;jettySize=auto;html=1;exitX=0.5;exitY=1;exitDx=0;exitDy=0;entryX=0;entryY=0.5;entryDx=0;entryDy=0;" edge="1" parent="1" source="7LfN_9OkxTcba98f9i6o-66" target="7LfN_9OkxTcba98f9i6o-189">
          <mxGeometry relative="1" as="geometry" />
        </mxCell>
        <mxCell id="7LfN_9OkxTcba98f9i6o-66" value="m&lt;sub style=&quot;font-size: 15px;&quot;&gt;i+3&lt;/sub&gt;" style="rounded=0;whiteSpace=wrap;html=1;fontFamily=Courier New;fontSize=15;strokeWidth=1;strokeColor=default;fontStyle=0;fillColor=none;" parent="1" vertex="1">
          <mxGeometry x="175" y="250" width="80" height="40" as="geometry" />
        </mxCell>
        <mxCell id="7LfN_9OkxTcba98f9i6o-67" value="agg(t&lt;sub style=&quot;&quot;&gt;&lt;font style=&quot;font-size: 10px;&quot;&gt;i+1&lt;/font&gt;&lt;/sub&gt;&lt;sub style=&quot;font-size: 15px;&quot;&gt;,&lt;/sub&gt;&lt;span style=&quot;background-color: initial;&quot;&gt;t&lt;/span&gt;&lt;sub style=&quot;background-color: initial;&quot;&gt;&lt;font style=&quot;font-size: 10px;&quot;&gt;i+2&lt;/font&gt;&lt;/sub&gt;&lt;sub style=&quot;background-color: initial; font-size: 15px;&quot;&gt;,&lt;/sub&gt;&lt;span style=&quot;background-color: initial;&quot;&gt;t&lt;/span&gt;&lt;sub style=&quot;background-color: initial;&quot;&gt;&lt;font style=&quot;font-size: 10px;&quot;&gt;i+3&lt;/font&gt;&lt;/sub&gt;&lt;span style=&quot;background-color: initial;&quot;&gt;)&lt;/span&gt;" style="rounded=0;whiteSpace=wrap;html=1;fontFamily=Courier New;fontSize=15;fillColor=#EA6B66;" parent="1" vertex="1">
          <mxGeometry x="261" y="250" width="169" height="40" as="geometry" />
        </mxCell>
        <mxCell id="R5h9vcgwqC-V3kslJ7xL-15" style="edgeStyle=orthogonalEdgeStyle;rounded=0;orthogonalLoop=1;jettySize=auto;html=1;exitX=0.5;exitY=1;exitDx=0;exitDy=0;entryX=0;entryY=0.5;entryDx=0;entryDy=0;" edge="1" parent="1" source="7LfN_9OkxTcba98f9i6o-68" target="R5h9vcgwqC-V3kslJ7xL-13">
          <mxGeometry relative="1" as="geometry" />
        </mxCell>
        <mxCell id="7LfN_9OkxTcba98f9i6o-68" value="m&lt;sub style=&quot;font-size: 15px;&quot;&gt;i+4&lt;/sub&gt;" style="rounded=0;whiteSpace=wrap;html=1;fontFamily=Courier New;fontSize=15;" parent="1" vertex="1">
          <mxGeometry x="442.5" y="250" width="80" height="40" as="geometry" />
        </mxCell>
        <mxCell id="R5h9vcgwqC-V3kslJ7xL-16" style="edgeStyle=orthogonalEdgeStyle;rounded=0;orthogonalLoop=1;jettySize=auto;html=1;exitX=0.5;exitY=1;exitDx=0;exitDy=0;entryX=0;entryY=0.5;entryDx=0;entryDy=0;" edge="1" parent="1" source="7LfN_9OkxTcba98f9i6o-69" target="R5h9vcgwqC-V3kslJ7xL-12">
          <mxGeometry relative="1" as="geometry" />
        </mxCell>
        <mxCell id="7LfN_9OkxTcba98f9i6o-69" value="m&lt;sub style=&quot;font-size: 15px;&quot;&gt;i+5&lt;/sub&gt;" style="rounded=0;whiteSpace=wrap;html=1;fontFamily=Courier New;fontSize=15;" parent="1" vertex="1">
          <mxGeometry x="525" y="250" width="80" height="40" as="geometry" />
        </mxCell>
        <mxCell id="R5h9vcgwqC-V3kslJ7xL-2" style="edgeStyle=orthogonalEdgeStyle;rounded=0;orthogonalLoop=1;jettySize=auto;html=1;exitX=0.5;exitY=1;exitDx=0;exitDy=0;entryX=0;entryY=0.5;entryDx=0;entryDy=0;" edge="1" parent="1" source="7LfN_9OkxTcba98f9i6o-70" target="7LfN_9OkxTcba98f9i6o-191">
          <mxGeometry relative="1" as="geometry" />
        </mxCell>
        <mxCell id="7LfN_9OkxTcba98f9i6o-70" value="m&lt;sub style=&quot;font-size: 15px;&quot;&gt;i+1&lt;/sub&gt;" style="rounded=0;whiteSpace=wrap;html=1;fontFamily=Courier New;fontSize=15;strokeWidth=1;strokeColor=default;fontStyle=0;fillColor=none;" parent="1" vertex="1">
          <mxGeometry x="5" y="250" width="80" height="40" as="geometry" />
        </mxCell>
        <mxCell id="R5h9vcgwqC-V3kslJ7xL-17" style="edgeStyle=orthogonalEdgeStyle;rounded=0;orthogonalLoop=1;jettySize=auto;html=1;exitX=0.5;exitY=1;exitDx=0;exitDy=0;entryX=0;entryY=0.5;entryDx=0;entryDy=0;" edge="1" parent="1" source="7LfN_9OkxTcba98f9i6o-88" target="R5h9vcgwqC-V3kslJ7xL-11">
          <mxGeometry relative="1" as="geometry" />
        </mxCell>
        <mxCell id="7LfN_9OkxTcba98f9i6o-88" value="m&lt;sub style=&quot;font-size: 15px;&quot;&gt;i+6&lt;/sub&gt;" style="rounded=0;whiteSpace=wrap;html=1;fontFamily=Courier New;fontSize=15;" parent="1" vertex="1">
          <mxGeometry x="607" y="250" width="80" height="40" as="geometry" />
        </mxCell>
        <mxCell id="7LfN_9OkxTcba98f9i6o-127" value="&lt;h1&gt;Aggregate MAC&lt;/h1&gt;" style="text;html=1;align=center;verticalAlign=middle;whiteSpace=wrap;rounded=0;fontSize=13;" parent="1" vertex="1">
          <mxGeometry y="190" width="210" height="30" as="geometry" />
        </mxCell>
        <mxCell id="7LfN_9OkxTcba98f9i6o-128" value="&lt;h1&gt;Compound MAC&lt;/h1&gt;" style="text;html=1;align=center;verticalAlign=middle;whiteSpace=wrap;rounded=0;fontSize=13;" parent="1" vertex="1">
          <mxGeometry y="470" width="220" height="30" as="geometry" />
        </mxCell>
        <mxCell id="7LfN_9OkxTcba98f9i6o-130" value="&lt;h1&gt;Progressive MAC&lt;/h1&gt;" style="text;html=1;align=center;verticalAlign=middle;whiteSpace=wrap;rounded=0;fontSize=13;" parent="1" vertex="1">
          <mxGeometry y="820" width="230" height="30" as="geometry" />
        </mxCell>
        <mxCell id="7LfN_9OkxTcba98f9i6o-141" value="m&lt;sub style=&quot;font-size: 15px;&quot;&gt;i+2&lt;/sub&gt;" style="rounded=0;whiteSpace=wrap;html=1;fontFamily=Courier New;fontSize=15;fontStyle=0;strokeWidth=1;strokeColor=default;fillColor=none;" parent="1" vertex="1">
          <mxGeometry x="296" y="69" width="80" height="40" as="geometry" />
        </mxCell>
        <mxCell id="7LfN_9OkxTcba98f9i6o-142" value="t&lt;sub style=&quot;font-size: 15px;&quot;&gt;i+2&lt;/sub&gt;" style="rounded=0;whiteSpace=wrap;html=1;fontFamily=Courier New;fontSize=15;fillColor=#EA6B66;fontStyle=0;strokeWidth=1;strokeColor=default;" parent="1" vertex="1">
          <mxGeometry x="376" y="69" width="40" height="40" as="geometry" />
        </mxCell>
        <mxCell id="7LfN_9OkxTcba98f9i6o-143" value="m&lt;sub style=&quot;font-size: 15px;&quot;&gt;i+3&lt;/sub&gt;" style="rounded=0;whiteSpace=wrap;html=1;fontFamily=Courier New;fontSize=15;fontStyle=0;strokeWidth=1;strokeColor=default;fillColor=none;" parent="1" vertex="1">
          <mxGeometry x="570" y="69" width="80" height="40" as="geometry" />
        </mxCell>
        <mxCell id="7LfN_9OkxTcba98f9i6o-144" value="t&lt;sub style=&quot;font-size: 15px;&quot;&gt;i+3&lt;/sub&gt;" style="rounded=0;whiteSpace=wrap;html=1;fontFamily=Courier New;fontSize=15;fillColor=#EA6B66;fontStyle=0;strokeWidth=1;strokeColor=default;" parent="1" vertex="1">
          <mxGeometry x="650" y="69" width="40" height="40" as="geometry" />
        </mxCell>
        <mxCell id="7LfN_9OkxTcba98f9i6o-148" value="m&lt;sub style=&quot;font-size: 15px;&quot;&gt;i+1&lt;/sub&gt;" style="rounded=0;whiteSpace=wrap;html=1;fontFamily=Courier New;fontSize=15;" parent="1" vertex="1">
          <mxGeometry x="11" y="70" width="80" height="40" as="geometry" />
        </mxCell>
        <mxCell id="7LfN_9OkxTcba98f9i6o-149" value="&lt;span style=&quot;color: rgb(0, 0, 0); font-size: 15px; font-style: normal; font-variant-ligatures: normal; font-variant-caps: normal; font-weight: 400; letter-spacing: normal; orphans: 2; text-align: center; text-indent: 0px; text-transform: none; widows: 2; word-spacing: 0px; -webkit-text-stroke-width: 0px; white-space: normal; text-decoration-thickness: initial; text-decoration-style: initial; text-decoration-color: initial; float: none; display: inline !important;&quot;&gt;t&lt;/span&gt;&lt;sub style=&quot;forced-color-adjust: none; color: rgb(0, 0, 0); font-style: normal; font-variant-ligatures: normal; font-variant-caps: normal; font-weight: 400; letter-spacing: normal; orphans: 2; text-align: center; text-indent: 0px; text-transform: none; widows: 2; word-spacing: 0px; -webkit-text-stroke-width: 0px; white-space: normal; text-decoration-thickness: initial; text-decoration-style: initial; text-decoration-color: initial; font-size: 15px;&quot;&gt;i+1&lt;/sub&gt;" style="rounded=0;whiteSpace=wrap;html=1;fontFamily=Courier New;fontSize=15;labelBackgroundColor=none;fillColor=#EA6B66;strokeColor=default;" parent="1" vertex="1">
          <mxGeometry x="91" y="70" width="40" height="40" as="geometry" />
        </mxCell>
        <mxCell id="7LfN_9OkxTcba98f9i6o-152" value="&lt;h1&gt;Truncate MAC&lt;/h1&gt;" style="text;html=1;align=center;verticalAlign=middle;whiteSpace=wrap;rounded=0;fontSize=13;" parent="1" vertex="1">
          <mxGeometry y="20" width="200" height="30" as="geometry" />
        </mxCell>
        <mxCell id="7LfN_9OkxTcba98f9i6o-189" value="t&lt;sub style=&quot;font-size: 15px;&quot;&gt;i+3&lt;/sub&gt;" style="rounded=0;whiteSpace=wrap;html=1;fontFamily=Courier New;fontSize=15;fillColor=#ffe6cc;rotation=0;opacity=70;strokeColor=#d79b00;" parent="1" vertex="1">
          <mxGeometry x="261" y="326" width="169" height="30" as="geometry" />
        </mxCell>
        <mxCell id="7LfN_9OkxTcba98f9i6o-190" value="t&lt;sub style=&quot;font-size: 15px;&quot;&gt;i+2&lt;/sub&gt;" style="rounded=0;whiteSpace=wrap;html=1;fontFamily=Courier New;fontSize=15;fillColor=#ffe6cc;rotation=0;opacity=70;strokeColor=#d79b00;" parent="1" vertex="1">
          <mxGeometry x="261" y="361" width="169" height="30" as="geometry" />
        </mxCell>
        <mxCell id="7LfN_9OkxTcba98f9i6o-191" value="t&lt;sub style=&quot;font-size: 15px;&quot;&gt;i+1&lt;/sub&gt;" style="rounded=0;whiteSpace=wrap;html=1;fontFamily=Courier New;fontSize=15;fillColor=#ffe6cc;rotation=0;opacity=70;strokeColor=#d79b00;" parent="1" vertex="1">
          <mxGeometry x="261" y="396" width="169" height="30" as="geometry" />
        </mxCell>
        <mxCell id="7LfN_9OkxTcba98f9i6o-199" value="t&lt;sub style=&quot;font-size: 15px;&quot;&gt;i+4&lt;/sub&gt;" style="rounded=0;whiteSpace=wrap;html=1;fontFamily=Courier New;fontSize=15;fillColor=#f8cecc;strokeColor=#b85450;" parent="1" vertex="1">
          <mxGeometry x="605" y="900" width="40" height="40" as="geometry" />
        </mxCell>
        <mxCell id="7LfN_9OkxTcba98f9i6o-200" value="t&lt;sub style=&quot;font-size: 15px;&quot;&gt;i+5&lt;/sub&gt;" style="rounded=0;whiteSpace=wrap;html=1;fontFamily=Courier New;fontSize=15;fillColor=#f8cecc;strokeColor=#b85450;" parent="1" vertex="1">
          <mxGeometry x="780" y="900" width="40" height="40" as="geometry" />
        </mxCell>
        <mxCell id="R5h9vcgwqC-V3kslJ7xL-6" value="agg(t&lt;sub style=&quot;&quot;&gt;&lt;font style=&quot;font-size: 10px;&quot;&gt;i+4&lt;/font&gt;&lt;/sub&gt;&lt;sub style=&quot;font-size: 15px;&quot;&gt;,&lt;/sub&gt;&lt;span style=&quot;background-color: initial;&quot;&gt;t&lt;/span&gt;&lt;sub style=&quot;background-color: initial;&quot;&gt;&lt;font style=&quot;font-size: 10px;&quot;&gt;i+5&lt;/font&gt;&lt;/sub&gt;&lt;sub style=&quot;background-color: initial; font-size: 15px;&quot;&gt;,&lt;/sub&gt;&lt;span style=&quot;background-color: initial;&quot;&gt;t&lt;/span&gt;&lt;sub style=&quot;background-color: initial;&quot;&gt;&lt;font style=&quot;font-size: 10px;&quot;&gt;i+6&lt;/font&gt;&lt;/sub&gt;&lt;span style=&quot;background-color: initial;&quot;&gt;)&lt;/span&gt;" style="rounded=0;whiteSpace=wrap;html=1;fontFamily=Courier New;fontSize=15;fillColor=#EA6B66;" vertex="1" parent="1">
          <mxGeometry x="695.5" y="250" width="169" height="40" as="geometry" />
        </mxCell>
        <mxCell id="R5h9vcgwqC-V3kslJ7xL-11" value="t&lt;sub style=&quot;font-size: 15px;&quot;&gt;i+6&lt;/sub&gt;" style="rounded=0;whiteSpace=wrap;html=1;fontFamily=Courier New;fontSize=15;fillColor=#ffe6cc;rotation=0;opacity=70;strokeColor=#d79b00;" vertex="1" parent="1">
          <mxGeometry x="695.5" y="326" width="169" height="30" as="geometry" />
        </mxCell>
        <mxCell id="R5h9vcgwqC-V3kslJ7xL-12" value="t&lt;sub style=&quot;font-size: 15px;&quot;&gt;i+5&lt;/sub&gt;" style="rounded=0;whiteSpace=wrap;html=1;fontFamily=Courier New;fontSize=15;fillColor=#ffe6cc;rotation=0;opacity=70;strokeColor=#d79b00;" vertex="1" parent="1">
          <mxGeometry x="695.5" y="361" width="169" height="30" as="geometry" />
        </mxCell>
        <mxCell id="R5h9vcgwqC-V3kslJ7xL-13" value="t&lt;sub style=&quot;font-size: 15px;&quot;&gt;i+4&lt;/sub&gt;" style="rounded=0;whiteSpace=wrap;html=1;fontFamily=Courier New;fontSize=15;fillColor=#ffe6cc;rotation=0;opacity=70;strokeColor=#d79b00;" vertex="1" parent="1">
          <mxGeometry x="695.5" y="396" width="169" height="30" as="geometry" />
        </mxCell>
        <mxCell id="R5h9vcgwqC-V3kslJ7xL-22" value="" style="endArrow=none;dashed=1;html=1;rounded=0;exitX=0;exitY=0;exitDx=0;exitDy=0;" edge="1" parent="1">
          <mxGeometry width="50" height="50" relative="1" as="geometry">
            <mxPoint x="650" y="127.32" as="sourcePoint" />
            <mxPoint x="650" y="106.32" as="targetPoint" />
          </mxGeometry>
        </mxCell>
        <mxCell id="R5h9vcgwqC-V3kslJ7xL-23" value="&lt;span style=&quot;color: rgb(0, 0, 0); font-size: 15px; font-style: normal; font-variant-ligatures: normal; font-variant-caps: normal; font-weight: 400; letter-spacing: normal; orphans: 2; text-align: center; text-indent: 0px; text-transform: none; widows: 2; word-spacing: 0px; -webkit-text-stroke-width: 0px; white-space: normal; text-decoration-thickness: initial; text-decoration-style: initial; text-decoration-color: initial; float: none; display: inline !important;&quot;&gt;t&lt;/span&gt;&lt;sub style=&quot;forced-color-adjust: none; color: rgb(0, 0, 0); font-style: normal; font-variant-ligatures: normal; font-variant-caps: normal; font-weight: 400; letter-spacing: normal; orphans: 2; text-align: center; text-indent: 0px; text-transform: none; widows: 2; word-spacing: 0px; -webkit-text-stroke-width: 0px; white-space: normal; text-decoration-thickness: initial; text-decoration-style: initial; text-decoration-color: initial; font-size: 15px;&quot;&gt;i+4&lt;/sub&gt;" style="rounded=0;whiteSpace=wrap;html=1;fontFamily=Courier New;fontSize=15;labelBackgroundColor=none;fillColor=#f8cecc;strokeColor=#b85450;" vertex="1" parent="1">
          <mxGeometry x="650" y="127.32" width="164" height="40" as="geometry" />
        </mxCell>
        <mxCell id="R5h9vcgwqC-V3kslJ7xL-24" value="" style="endArrow=none;dashed=1;html=1;rounded=0;exitX=0.25;exitY=1;exitDx=0;exitDy=0;" edge="1" parent="1" source="R5h9vcgwqC-V3kslJ7xL-23">
          <mxGeometry width="50" height="50" relative="1" as="geometry">
            <mxPoint x="690" y="170" as="sourcePoint" />
            <mxPoint x="690" y="107.32" as="targetPoint" />
          </mxGeometry>
        </mxCell>
        <mxCell id="R5h9vcgwqC-V3kslJ7xL-25" value="" style="rounded=0;whiteSpace=wrap;html=1;strokeColor=#b85450;opacity=90;glass=0;shadow=0;fillStyle=zigzag-line;fillColor=#FF6666;" vertex="1" parent="1">
          <mxGeometry x="692" y="128.32" width="122" height="38" as="geometry" />
        </mxCell>
        <mxCell id="R5h9vcgwqC-V3kslJ7xL-26" value="" style="endArrow=none;dashed=1;html=1;rounded=0;exitX=0;exitY=0;exitDx=0;exitDy=0;" edge="1" parent="1">
          <mxGeometry width="50" height="50" relative="1" as="geometry">
            <mxPoint x="376" y="127.32" as="sourcePoint" />
            <mxPoint x="376" y="106.32" as="targetPoint" />
          </mxGeometry>
        </mxCell>
        <mxCell id="R5h9vcgwqC-V3kslJ7xL-27" value="&lt;span style=&quot;color: rgb(0, 0, 0); font-size: 15px; font-style: normal; font-variant-ligatures: normal; font-variant-caps: normal; font-weight: 400; letter-spacing: normal; orphans: 2; text-align: center; text-indent: 0px; text-transform: none; widows: 2; word-spacing: 0px; -webkit-text-stroke-width: 0px; white-space: normal; text-decoration-thickness: initial; text-decoration-style: initial; text-decoration-color: initial; float: none; display: inline !important;&quot;&gt;t&lt;/span&gt;&lt;sub style=&quot;forced-color-adjust: none; color: rgb(0, 0, 0); font-style: normal; font-variant-ligatures: normal; font-variant-caps: normal; font-weight: 400; letter-spacing: normal; orphans: 2; text-align: center; text-indent: 0px; text-transform: none; widows: 2; word-spacing: 0px; -webkit-text-stroke-width: 0px; white-space: normal; text-decoration-thickness: initial; text-decoration-style: initial; text-decoration-color: initial; font-size: 15px;&quot;&gt;i+4&lt;/sub&gt;" style="rounded=0;whiteSpace=wrap;html=1;fontFamily=Courier New;fontSize=15;labelBackgroundColor=none;fillColor=#f8cecc;strokeColor=#b85450;" vertex="1" parent="1">
          <mxGeometry x="376" y="127.32" width="164" height="40" as="geometry" />
        </mxCell>
        <mxCell id="R5h9vcgwqC-V3kslJ7xL-28" value="" style="endArrow=none;dashed=1;html=1;rounded=0;exitX=0.25;exitY=1;exitDx=0;exitDy=0;" edge="1" parent="1" source="R5h9vcgwqC-V3kslJ7xL-27">
          <mxGeometry width="50" height="50" relative="1" as="geometry">
            <mxPoint x="416" y="170" as="sourcePoint" />
            <mxPoint x="416" y="107.32" as="targetPoint" />
          </mxGeometry>
        </mxCell>
        <mxCell id="R5h9vcgwqC-V3kslJ7xL-29" value="" style="rounded=0;whiteSpace=wrap;html=1;strokeColor=#b85450;opacity=90;glass=0;shadow=0;fillStyle=zigzag-line;fillColor=#FF6666;" vertex="1" parent="1">
          <mxGeometry x="418" y="128.32" width="122" height="38" as="geometry" />
        </mxCell>
        <mxCell id="R5h9vcgwqC-V3kslJ7xL-30" value="" style="endArrow=none;dashed=1;html=1;rounded=0;exitX=0;exitY=0;exitDx=0;exitDy=0;" edge="1" parent="1">
          <mxGeometry width="50" height="50" relative="1" as="geometry">
            <mxPoint x="91" y="127.32" as="sourcePoint" />
            <mxPoint x="91" y="106.32" as="targetPoint" />
          </mxGeometry>
        </mxCell>
        <mxCell id="R5h9vcgwqC-V3kslJ7xL-31" value="&lt;span style=&quot;color: rgb(0, 0, 0); font-size: 15px; font-style: normal; font-variant-ligatures: normal; font-variant-caps: normal; font-weight: 400; letter-spacing: normal; orphans: 2; text-align: center; text-indent: 0px; text-transform: none; widows: 2; word-spacing: 0px; -webkit-text-stroke-width: 0px; white-space: normal; text-decoration-thickness: initial; text-decoration-style: initial; text-decoration-color: initial; float: none; display: inline !important;&quot;&gt;t&lt;/span&gt;&lt;sub style=&quot;forced-color-adjust: none; color: rgb(0, 0, 0); font-style: normal; font-variant-ligatures: normal; font-variant-caps: normal; font-weight: 400; letter-spacing: normal; orphans: 2; text-align: center; text-indent: 0px; text-transform: none; widows: 2; word-spacing: 0px; -webkit-text-stroke-width: 0px; white-space: normal; text-decoration-thickness: initial; text-decoration-style: initial; text-decoration-color: initial; font-size: 15px;&quot;&gt;i+4&lt;/sub&gt;" style="rounded=0;whiteSpace=wrap;html=1;fontFamily=Courier New;fontSize=15;labelBackgroundColor=none;fillColor=#f8cecc;strokeColor=#b85450;" vertex="1" parent="1">
          <mxGeometry x="91" y="127.32" width="164" height="40" as="geometry" />
        </mxCell>
        <mxCell id="R5h9vcgwqC-V3kslJ7xL-32" value="" style="endArrow=none;dashed=1;html=1;rounded=0;exitX=0.25;exitY=1;exitDx=0;exitDy=0;" edge="1" parent="1" source="R5h9vcgwqC-V3kslJ7xL-31">
          <mxGeometry width="50" height="50" relative="1" as="geometry">
            <mxPoint x="131" y="170" as="sourcePoint" />
            <mxPoint x="131" y="107.32" as="targetPoint" />
          </mxGeometry>
        </mxCell>
        <mxCell id="R5h9vcgwqC-V3kslJ7xL-33" value="" style="rounded=0;whiteSpace=wrap;html=1;strokeColor=#b85450;opacity=90;glass=0;shadow=0;fillStyle=zigzag-line;fillColor=#FF6666;" vertex="1" parent="1">
          <mxGeometry x="133" y="128.32" width="122" height="38" as="geometry" />
        </mxCell>
        <mxCell id="R5h9vcgwqC-V3kslJ7xL-34" value="" style="shape=curlyBracket;whiteSpace=wrap;html=1;rounded=1;flipH=1;labelPosition=right;verticalLabelPosition=middle;align=left;verticalAlign=middle;rotation=-90;" vertex="1" parent="1">
          <mxGeometry x="335" y="227" width="20" height="170" as="geometry" />
        </mxCell>
        <mxCell id="R5h9vcgwqC-V3kslJ7xL-35" style="edgeStyle=orthogonalEdgeStyle;rounded=0;orthogonalLoop=1;jettySize=auto;html=1;exitX=0.1;exitY=0.5;exitDx=0;exitDy=0;exitPerimeter=0;entryX=0.499;entryY=1.09;entryDx=0;entryDy=0;entryPerimeter=0;" edge="1" parent="1" source="R5h9vcgwqC-V3kslJ7xL-34" target="7LfN_9OkxTcba98f9i6o-67">
          <mxGeometry relative="1" as="geometry" />
        </mxCell>
        <mxCell id="R5h9vcgwqC-V3kslJ7xL-42" style="edgeStyle=orthogonalEdgeStyle;rounded=0;orthogonalLoop=1;jettySize=auto;html=1;exitX=0.1;exitY=0.5;exitDx=0;exitDy=0;exitPerimeter=0;" edge="1" parent="1" source="R5h9vcgwqC-V3kslJ7xL-40">
          <mxGeometry relative="1" as="geometry">
            <mxPoint x="779.9875776397515" y="290" as="targetPoint" />
          </mxGeometry>
        </mxCell>
        <mxCell id="R5h9vcgwqC-V3kslJ7xL-40" value="" style="shape=curlyBracket;whiteSpace=wrap;html=1;rounded=1;flipH=1;labelPosition=right;verticalLabelPosition=middle;align=left;verticalAlign=middle;rotation=-90;" vertex="1" parent="1">
          <mxGeometry x="770" y="225" width="20" height="170" as="geometry" />
        </mxCell>
        <mxCell id="R5h9vcgwqC-V3kslJ7xL-44" value="m&lt;sub style=&quot;font-size: 15px;&quot;&gt;i+2&lt;/sub&gt;" style="rounded=0;whiteSpace=wrap;html=1;fontFamily=Courier New;fontSize=15;strokeWidth=1;strokeColor=default;fontStyle=0;fillColor=none;" vertex="1" parent="1">
          <mxGeometry x="90" y="525" width="80" height="40" as="geometry" />
        </mxCell>
        <mxCell id="R5h9vcgwqC-V3kslJ7xL-46" value="m&lt;sub style=&quot;font-size: 15px;&quot;&gt;i+3&lt;/sub&gt;" style="rounded=0;whiteSpace=wrap;html=1;fontFamily=Courier New;fontSize=15;strokeWidth=1;strokeColor=default;fontStyle=0;fillColor=none;" vertex="1" parent="1">
          <mxGeometry x="175" y="525" width="80" height="40" as="geometry" />
        </mxCell>
        <mxCell id="R5h9vcgwqC-V3kslJ7xL-47" value="MAC(t&lt;sub style=&quot;&quot;&gt;&lt;font style=&quot;font-size: 10px;&quot;&gt;i+1&lt;/font&gt;&lt;/sub&gt;&lt;sub style=&quot;font-size: 15px;&quot;&gt;,&lt;/sub&gt;&lt;span style=&quot;background-color: initial;&quot;&gt;t&lt;/span&gt;&lt;sub style=&quot;background-color: initial;&quot;&gt;&lt;font style=&quot;font-size: 10px;&quot;&gt;i+2&lt;/font&gt;&lt;/sub&gt;&lt;sub style=&quot;background-color: initial; font-size: 15px;&quot;&gt;,&lt;/sub&gt;&lt;span style=&quot;background-color: initial;&quot;&gt;t&lt;/span&gt;&lt;sub style=&quot;background-color: initial;&quot;&gt;&lt;font style=&quot;font-size: 10px;&quot;&gt;i+3&lt;/font&gt;&lt;/sub&gt;&lt;span style=&quot;background-color: initial;&quot;&gt;)&lt;/span&gt;" style="rounded=0;whiteSpace=wrap;html=1;fontFamily=Courier New;fontSize=15;fillColor=#EA6B66;" vertex="1" parent="1">
          <mxGeometry x="261" y="525" width="169" height="40" as="geometry" />
        </mxCell>
        <mxCell id="R5h9vcgwqC-V3kslJ7xL-48" style="edgeStyle=orthogonalEdgeStyle;rounded=0;orthogonalLoop=1;jettySize=auto;html=1;exitX=0.5;exitY=1;exitDx=0;exitDy=0;entryX=0;entryY=0.5;entryDx=0;entryDy=0;" edge="1" parent="1" source="R5h9vcgwqC-V3kslJ7xL-49" target="R5h9vcgwqC-V3kslJ7xL-62">
          <mxGeometry relative="1" as="geometry" />
        </mxCell>
        <mxCell id="R5h9vcgwqC-V3kslJ7xL-49" value="m&lt;sub style=&quot;font-size: 15px;&quot;&gt;i+4&lt;/sub&gt;" style="rounded=0;whiteSpace=wrap;html=1;fontFamily=Courier New;fontSize=15;" vertex="1" parent="1">
          <mxGeometry x="442.5" y="525" width="80" height="40" as="geometry" />
        </mxCell>
        <mxCell id="R5h9vcgwqC-V3kslJ7xL-50" style="edgeStyle=orthogonalEdgeStyle;rounded=0;orthogonalLoop=1;jettySize=auto;html=1;exitX=0.5;exitY=1;exitDx=0;exitDy=0;entryX=0;entryY=0.5;entryDx=0;entryDy=0;" edge="1" parent="1" source="R5h9vcgwqC-V3kslJ7xL-51" target="R5h9vcgwqC-V3kslJ7xL-61">
          <mxGeometry relative="1" as="geometry" />
        </mxCell>
        <mxCell id="R5h9vcgwqC-V3kslJ7xL-51" value="m&lt;sub style=&quot;font-size: 15px;&quot;&gt;i+5&lt;/sub&gt;" style="rounded=0;whiteSpace=wrap;html=1;fontFamily=Courier New;fontSize=15;" vertex="1" parent="1">
          <mxGeometry x="525" y="525" width="80" height="40" as="geometry" />
        </mxCell>
        <mxCell id="R5h9vcgwqC-V3kslJ7xL-53" value="m&lt;sub style=&quot;font-size: 15px;&quot;&gt;i+1&lt;/sub&gt;" style="rounded=0;whiteSpace=wrap;html=1;fontFamily=Courier New;fontSize=15;strokeWidth=1;strokeColor=default;fontStyle=0;fillColor=none;" vertex="1" parent="1">
          <mxGeometry x="5" y="525" width="80" height="40" as="geometry" />
        </mxCell>
        <mxCell id="R5h9vcgwqC-V3kslJ7xL-54" style="edgeStyle=orthogonalEdgeStyle;rounded=0;orthogonalLoop=1;jettySize=auto;html=1;exitX=0.5;exitY=1;exitDx=0;exitDy=0;entryX=0;entryY=0.5;entryDx=0;entryDy=0;" edge="1" parent="1" source="R5h9vcgwqC-V3kslJ7xL-55" target="R5h9vcgwqC-V3kslJ7xL-60">
          <mxGeometry relative="1" as="geometry" />
        </mxCell>
        <mxCell id="R5h9vcgwqC-V3kslJ7xL-55" value="m&lt;sub style=&quot;font-size: 15px;&quot;&gt;i+6&lt;/sub&gt;" style="rounded=0;whiteSpace=wrap;html=1;fontFamily=Courier New;fontSize=15;" vertex="1" parent="1">
          <mxGeometry x="607" y="525" width="80" height="40" as="geometry" />
        </mxCell>
        <mxCell id="R5h9vcgwqC-V3kslJ7xL-56" value="m&lt;sub style=&quot;font-size: 15px;&quot;&gt;i+3&lt;/sub&gt;" style="rounded=0;whiteSpace=wrap;html=1;fontFamily=Courier New;fontSize=15;fillColor=none;rotation=0;opacity=70;strokeColor=#FFFFFF;fontColor=default;" vertex="1" parent="1">
          <mxGeometry x="261" y="601" width="169" height="30" as="geometry" />
        </mxCell>
        <mxCell id="R5h9vcgwqC-V3kslJ7xL-57" value="m&lt;sub style=&quot;font-size: 15px;&quot;&gt;i+2&lt;/sub&gt;" style="rounded=0;whiteSpace=wrap;html=1;fontFamily=Courier New;fontSize=15;fillColor=none;rotation=0;opacity=70;strokeColor=#FFFFFF;fontColor=default;" vertex="1" parent="1">
          <mxGeometry x="261" y="636" width="169" height="30" as="geometry" />
        </mxCell>
        <mxCell id="R5h9vcgwqC-V3kslJ7xL-58" value="m&lt;sub style=&quot;font-size: 15px;&quot;&gt;i+1&lt;/sub&gt;" style="rounded=0;whiteSpace=wrap;html=1;fontFamily=Courier New;fontSize=15;fillColor=none;rotation=0;opacity=70;strokeColor=#FFFFFF;fontColor=default;" vertex="1" parent="1">
          <mxGeometry x="261" y="671" width="169" height="30" as="geometry" />
        </mxCell>
        <mxCell id="R5h9vcgwqC-V3kslJ7xL-59" value="MAC(t&lt;sub style=&quot;&quot;&gt;&lt;font style=&quot;font-size: 10px;&quot;&gt;i+4&lt;/font&gt;&lt;/sub&gt;&lt;sub style=&quot;font-size: 15px;&quot;&gt;,&lt;/sub&gt;&lt;span style=&quot;background-color: initial;&quot;&gt;t&lt;/span&gt;&lt;sub style=&quot;background-color: initial;&quot;&gt;&lt;font style=&quot;font-size: 10px;&quot;&gt;i+5&lt;/font&gt;&lt;/sub&gt;&lt;sub style=&quot;background-color: initial; font-size: 15px;&quot;&gt;,&lt;/sub&gt;&lt;span style=&quot;background-color: initial;&quot;&gt;t&lt;/span&gt;&lt;sub style=&quot;background-color: initial;&quot;&gt;&lt;font style=&quot;font-size: 10px;&quot;&gt;i+6&lt;/font&gt;&lt;/sub&gt;&lt;span style=&quot;background-color: initial;&quot;&gt;)&lt;/span&gt;" style="rounded=0;whiteSpace=wrap;html=1;fontFamily=Courier New;fontSize=15;fillColor=#EA6B66;" vertex="1" parent="1">
          <mxGeometry x="695.5" y="525" width="169" height="40" as="geometry" />
        </mxCell>
        <mxCell id="R5h9vcgwqC-V3kslJ7xL-60" value="t&lt;sub style=&quot;font-size: 15px;&quot;&gt;i+6&lt;/sub&gt;" style="rounded=0;whiteSpace=wrap;html=1;fontFamily=Courier New;fontSize=15;fillColor=#ffe6cc;rotation=0;opacity=70;strokeColor=#d79b00;" vertex="1" parent="1">
          <mxGeometry x="695.5" y="601" width="169" height="30" as="geometry" />
        </mxCell>
        <mxCell id="R5h9vcgwqC-V3kslJ7xL-61" value="t&lt;sub style=&quot;font-size: 15px;&quot;&gt;i+5&lt;/sub&gt;" style="rounded=0;whiteSpace=wrap;html=1;fontFamily=Courier New;fontSize=15;fillColor=#ffe6cc;rotation=0;opacity=70;strokeColor=#d79b00;" vertex="1" parent="1">
          <mxGeometry x="695.5" y="636" width="169" height="30" as="geometry" />
        </mxCell>
        <mxCell id="R5h9vcgwqC-V3kslJ7xL-62" value="t&lt;sub style=&quot;font-size: 15px;&quot;&gt;i+4&lt;/sub&gt;" style="rounded=0;whiteSpace=wrap;html=1;fontFamily=Courier New;fontSize=15;fillColor=#ffe6cc;rotation=0;opacity=70;strokeColor=#d79b00;" vertex="1" parent="1">
          <mxGeometry x="695.5" y="671" width="169" height="30" as="geometry" />
        </mxCell>
        <mxCell id="R5h9vcgwqC-V3kslJ7xL-65" style="edgeStyle=orthogonalEdgeStyle;rounded=0;orthogonalLoop=1;jettySize=auto;html=1;exitX=0.1;exitY=0.5;exitDx=0;exitDy=0;exitPerimeter=0;" edge="1" parent="1" source="R5h9vcgwqC-V3kslJ7xL-66">
          <mxGeometry relative="1" as="geometry">
            <mxPoint x="779.9875776397515" y="565" as="targetPoint" />
          </mxGeometry>
        </mxCell>
        <mxCell id="R5h9vcgwqC-V3kslJ7xL-66" value="" style="shape=curlyBracket;whiteSpace=wrap;html=1;rounded=1;flipH=1;labelPosition=right;verticalLabelPosition=middle;align=left;verticalAlign=middle;rotation=-90;" vertex="1" parent="1">
          <mxGeometry x="770" y="500" width="20" height="170" as="geometry" />
        </mxCell>
      </root>
    </mxGraphModel>
  </diagram>
</mxfile>
